<?xml version="1.0" standalone="no"?>
<!DOCTYPE svg PUBLIC "-//W3C//DTD SVG 20010904//EN"
 "http://www.w3.org/TR/2001/REC-SVG-20010904/DTD/svg10.dtd">
<svg version="1.0" xmlns="http://www.w3.org/2000/svg"
 width="254.000000pt" height="254.000000pt" viewBox="0 0 254.000000 254.000000"
 preserveAspectRatio="xMidYMid meet">
<metadata>
Created by potrace 1.11, written by Peter Selinger 2001-2013
</metadata>
<g transform="translate(0.000000,254.000000) scale(0.100000,-0.100000)"
fill="#000000" stroke="none">
<path d="M1239 2367 c-143 -95 -307 -197 -317 -197 -6 0 -12 -3 -14 -7 -3 -9
-33 -29 -195 -132 -61 -39 -116 -71 -122 -71 -5 0 -11 -4 -13 -9 -4 -11 -199
-130 -278 -171 -31 -15 -61 -39 -67 -52 -27 -56 -66 -165 -89 -253 -25 -93
-36 -189 -36 -315 0 -80 2 -152 5 -160 2 -8 7 -33 11 -55 15 -77 59 -195 88
-237 11 -16 17 -28 14 -28 -6 0 79 -118 111 -155 22 -24 127 -113 168 -141 94
-65 321 -150 415 -156 22 -1 40 -5 40 -10 0 -4 6 -5 13 -2 7 2 62 6 122 8 61
2 138 11 173 20 113 29 257 90 342 146 8 6 22 13 30 17 8 3 30 17 48 30 28 21
35 23 56 11 33 -18 300 -219 304 -230 2 -4 8 -8 13 -8 5 0 32 -18 60 -40 61
-48 36 -62 252 133 38 34 77 67 88 75 24 17 24 34 1 55 -17 15 -21 14 -58 -16
-21 -17 -40 -35 -42 -39 -5 -10 -29 -10 -34 0 -1 4 -27 25 -56 46 -29 21 -49
43 -45 48 3 7 1 8 -5 4 -11 -7 -125 73 -229 159 l-24 20 93 95 c51 52 107 113
123 134 17 21 35 44 40 50 6 6 22 29 35 51 13 22 26 42 29 45 20 18 86 157
105 220 24 79 30 124 30 215 -1 90 -7 151 -24 210 -15 53 -51 147 -62 162 -6
7 -6 18 -2 25 4 7 4 10 -1 6 -4 -4 -30 25 -57 65 -159 233 -450 401 -783 452
-65 10 -171 25 -181 25 -6 0 -40 -19 -75 -43z m-102 -246 l52 -1 -2 -827 -2
-828 -30 1 c-52 2 -133 14 -159 24 -14 5 -26 7 -26 4 0 -3 -6 -2 -12 3 -7 4
-21 9 -31 10 -46 7 -185 89 -255 151 l-34 29 67 64 c269 256 284 280 289 478
1 26 6 52 10 60 6 9 5 12 0 8 -6 -3 -10 44 -10 123 0 85 4 126 11 122 5 -3 5
1 -2 9 -13 16 -12 36 1 58 6 9 5 12 0 8 -6 -3 -10 44 -10 123 0 85 4 126 11
122 5 -3 5 1 -2 9 -13 16 -12 36 1 58 6 8 5 12 0 8 -6 -3 -10 34 -10 88 -1
103 -1 103 61 99 17 -1 53 -3 82 -3z m149 -19 c-2 -4 11 -6 30 -4 20 3 34 0
34 -7 0 -6 6 -8 14 -5 19 7 138 -22 236 -58 87 -33 198 -91 260 -137 54 -39
177 -168 168 -176 -2 -1 -33 -25 -70 -53 -76 -57 -133 -85 -204 -100 -53 -11
-180 -9 -229 3 -48 13 -159 70 -217 113 l-53 39 1 189 c2 222 0 204 20 204 8
0 13 -4 10 -8z m-596 -623 c-1 -562 -2 -583 -34 -651 -16 -33 -61 -88 -72 -88
-8 0 -41 41 -96 122 -123 181 -168 408 -123 628 7 30 36 104 46 117 6 7 8 13
5 13 -4 0 1 12 11 28 10 15 25 40 33 56 25 50 215 235 228 222 1 -2 2 -203 2
-447z m1384 139 c-4 -6 -3 -8 3 -5 10 6 26 -32 40 -93 10 -42 10 -251 1 -300
-4 -19 -10 -52 -14 -72 -4 -21 -9 -38 -13 -38 -3 0 -25 18 -49 39 -81 72 -215
138 -292 144 -11 1 -20 4 -20 7 0 7 -139 5 -147 -3 -3 -4 -18 -7 -32 -7 -61 0
-211 -79 -265 -139 -24 -27 -36 -27 -36 0 0 13 4 18 13 13 8 -5 8 -2 -2 9 -11
14 -11 20 0 34 8 9 9 14 4 11 -8 -5 -11 60 -10 203 0 115 1 209 2 209 1 0 35
-22 75 -49 116 -79 172 -96 308 -95 124 1 145 4 215 34 55 24 174 100 194 124
13 15 15 16 23 2 5 -9 6 -21 2 -28z m-289 -406 c87 -26 253 -128 247 -152 -1
-6 1 -9 6 -6 4 2 13 1 20 -3 27 -16 -104 -225 -204 -325 -91 -91 -273 -207
-348 -222 -10 -2 -33 -8 -50 -13 -37 -12 -97 -21 -157 -25 l-44 -3 -1 88 c-1
57 2 86 9 82 6 -4 7 -1 1 8 -13 22 -15 121 -2 113 7 -5 8 -2 2 7 -13 22 -15
121 -2 113 7 -5 8 -2 2 7 -12 20 -14 110 -2 132 18 34 51 66 61 60 6 -3 7 -2
4 4 -7 10 36 53 53 53 6 0 10 4 10 8 0 15 95 61 156 77 61 15 183 14 239 -3z"/>
</g>
</svg>
